<svg xmlns="http://www.w3.org/2000/svg" viewBox="0 0 1200 260" width="1200" height="260" role="img" aria-label="Kumar Shourya - software engineering, full-stack, applied ML">
  <defs>
    <radialGradient id="glow" cx="50%" cy="50%" r="50%">
      <stop offset="0%" stop-color="#D9A05B" stop-opacity="0.16"/>
      <stop offset="60%" stop-color="#D9A05B" stop-opacity="0.06"/>
      <stop offset="100%" stop-color="#D9A05B" stop-opacity="0"/>
    </radialGradient>
    <linearGradient id="fade" x1="0" x2="1">
      <stop offset="0%" stop-color="#30363D" stop-opacity="0"/>
      <stop offset="45%" stop-color="#30363D" stop-opacity="0.85"/>
      <stop offset="100%" stop-color="#30363D" stop-opacity="0.85"/>
    </linearGradient>
  </defs>
  <style>
    .eyebrow { font: 500 12px ui-monospace,'SF Mono','Cascadia Mono','JetBrains Mono','Segoe UI Mono','Roboto Mono',Menlo,Consolas,monospace; letter-spacing: 2.4px; fill: #8B949E; }
    .name    { font: 600 62px ui-sans-serif,system-ui,-apple-system,'Segoe UI','Helvetica Neue',Arial,sans-serif; letter-spacing: -1.9px; fill: #E6EDF3; }
    .role    { font: 400 15px ui-monospace,'SF Mono','Cascadia Mono','JetBrains Mono','Segoe UI Mono','Roboto Mono',Menlo,Consolas,monospace; letter-spacing: 0.3px; fill: #8B949E; }
    .b       { fill: #D9A05B; opacity: var(--o); animation: lift 7s linear infinite; }
    @keyframes lift { 0%, 86%, 100% { opacity: var(--o); } 91% { opacity: 0.95; } }
    @media (prefers-reduced-motion: reduce) { .b { animation: none; } }
  </style>

  <ellipse cx="940" cy="130" rx="260" ry="130" fill="url(#glow)"/>

  <g>
    <rect x="686" y="131.5" width="458" height="1" fill="url(#fade)" opacity="0.5"/>
      <rect class="b" x="776.0" y="123.2" width="5" height="17.6" rx="2.5" style="--o:0.318;animation-delay:0.000s"/>
      <rect class="b" x="787.0" y="118.0" width="5" height="28.0" rx="2.5" style="--o:0.376;animation-delay:0.075s"/>
      <rect class="b" x="798.0" y="119.4" width="5" height="25.2" rx="2.5" style="--o:0.36;animation-delay:0.150s"/>
      <rect class="b" x="809.0" y="113.6" width="5" height="36.8" rx="2.5" style="--o:0.425;animation-delay:0.225s"/>
      <rect class="b" x="820.0" y="119.2" width="5" height="25.5" rx="2.5" style="--o:0.362;animation-delay:0.300s"/>
      <rect class="b" x="831.0" y="109.1" width="5" height="45.7" rx="2.5" style="--o:0.475;animation-delay:0.375s"/>
      <rect class="b" x="842.0" y="106.3" width="5" height="51.5" rx="2.5" style="--o:0.507;animation-delay:0.450s"/>
      <rect class="b" x="853.0" y="110.9" width="5" height="42.2" rx="2.5" style="--o:0.455;animation-delay:0.525s"/>
      <rect class="b" x="864.0" y="104.0" width="5" height="56.1" rx="2.5" style="--o:0.533;animation-delay:0.600s"/>
      <rect class="b" x="875.0" y="102.2" width="5" height="59.5" rx="2.5" style="--o:0.552;animation-delay:0.675s"/>
      <rect class="b" x="886.0" y="93.0" width="5" height="78.1" rx="2.5" style="--o:0.655;animation-delay:0.750s"/>
      <rect class="b" x="897.0" y="107.0" width="5" height="49.9" rx="2.5" style="--o:0.499;animation-delay:0.825s"/>
      <rect class="b" x="908.0" y="84.9" width="5" height="94.3" rx="2.5" style="--o:0.746;animation-delay:0.900s"/>
      <rect class="b" x="919.0" y="103.3" width="5" height="57.3" rx="2.5" style="--o:0.54;animation-delay:0.975s"/>
      <rect class="b" x="930.0" y="97.9" width="5" height="68.2" rx="2.5" style="--o:0.6;animation-delay:1.050s"/>
      <rect class="b" x="941.0" y="102.2" width="5" height="59.7" rx="2.5" style="--o:0.553;animation-delay:1.125s"/>
      <rect class="b" x="952.0" y="87.5" width="5" height="89.1" rx="2.5" style="--o:0.717;animation-delay:1.200s"/>
      <rect class="b" x="963.0" y="100.8" width="5" height="62.4" rx="2.5" style="--o:0.568;animation-delay:1.275s"/>
      <rect class="b" x="974.0" y="110.0" width="5" height="43.9" rx="2.5" style="--o:0.465;animation-delay:1.350s"/>
      <rect class="b" x="985.0" y="101.8" width="5" height="60.4" rx="2.5" style="--o:0.557;animation-delay:1.425s"/>
      <rect class="b" x="996.0" y="107.6" width="5" height="48.8" rx="2.5" style="--o:0.492;animation-delay:1.500s"/>
      <rect class="b" x="1007.0" y="113.1" width="5" height="37.8" rx="2.5" style="--o:0.431;animation-delay:1.575s"/>
      <rect class="b" x="1018.0" y="116.1" width="5" height="31.8" rx="2.5" style="--o:0.397;animation-delay:1.650s"/>
      <rect class="b" x="1029.0" y="104.9" width="5" height="54.2" rx="2.5" style="--o:0.522;animation-delay:1.725s"/>
      <rect class="b" x="1040.0" y="116.7" width="5" height="30.7" rx="2.5" style="--o:0.391;animation-delay:1.800s"/>
      <rect class="b" x="1051.0" y="112.4" width="5" height="39.3" rx="2.5" style="--o:0.439;animation-delay:1.875s"/>
      <rect class="b" x="1062.0" y="108.4" width="5" height="47.1" rx="2.5" style="--o:0.483;animation-delay:1.950s"/>
      <rect class="b" x="1073.0" y="91.9" width="5" height="80.3" rx="2.5" style="--o:0.668;animation-delay:2.025s"/>
      <rect class="b" x="1084.0" y="108.3" width="5" height="47.4" rx="2.5" style="--o:0.484;animation-delay:2.100s"/>
      <rect class="b" x="1095.0" y="105.2" width="5" height="53.6" rx="2.5" style="--o:0.519;animation-delay:2.175s"/>
      <rect class="b" x="1106.0" y="107.1" width="5" height="49.8" rx="2.5" style="--o:0.498;animation-delay:2.250s"/>
      <rect class="b" x="1117.0" y="115.0" width="5" height="34.1" rx="2.5" style="--o:0.41;animation-delay:2.325s"/>
      <rect class="b" x="1128.0" y="121.1" width="5" height="21.9" rx="2.5" style="--o:0.342;animation-delay:2.400s"/>
      <rect class="b" x="1139.0" y="120.2" width="5" height="23.5" rx="2.5" style="--o:0.351;animation-delay:2.475s"/>
  </g>

  <text class="eyebrow" x="56" y="86">NIT PATNA &#183; B.TECH CSE &#183; CLASS OF 2028</text>
  <text class="name" x="53" y="150">Kumar Shourya</text>
  <rect x="56" y="172" width="46" height="2" fill="#D9A05B"/>
  <text class="role" x="56" y="202">software engineering &#183; full&#8209;stack &#183; applied ML</text>

</svg>
